<?xml version="1.0" standalone="no"?><!DOCTYPE svg PUBLIC "-//W3C//DTD SVG 1.1//EN" "http://www.w3.org/Graphics/SVG/1.1/DTD/svg11.dtd"><svg t="1566097720056" class="icon" viewBox="0 0 1024 1024" version="1.1" xmlns="http://www.w3.org/2000/svg" p-id="1124" xmlns:xlink="http://www.w3.org/1999/xlink" width="26" height="26"><defs><style type="text/css"></style></defs><path d="M168.4224 127.394816 802.085888 512l-634.53184 384.605184 0.868352-769.204224M168.4224 72.281088c-9.372672-0.047104-18.597888 2.327552-26.786816 6.890496-17.508352 9.729024-28.353536 28.192768-28.33408 48.2304l-0.868352 769.204224c-0.013312 20.025344 10.83904 38.488064 28.347392 48.231424 8.18176 4.56192 17.406976 6.943744 26.773504 6.890496 10.281984 0 20.354048-2.852864 29.094912-8.262656L831.154176 558.85824c25.877504-16.04096 33.857536-50.020352 17.816576-75.891712-4.49536-7.23968-10.576896-13.335552-17.816576-17.816576l-633.636864-384.605184c-8.740864-5.409792-18.813952-8.276992-29.094912-8.269824l0 0L168.4224 72.281088zM884.013056 71.035904c15.219712 0 27.56096 12.340224 27.56096 27.559936l0 826.80832c0 15.219712-12.341248 27.559936-27.56096 27.559936s-27.559936-12.340224-27.559936-27.559936l0-826.80832C856.45312 83.376128 868.793344 71.035904 884.013056 71.035904z" p-id="1125" fill="#FA3F00"></path></svg>
