<?xml version="1.0" standalone="no"?><!DOCTYPE svg PUBLIC "-//W3C//DTD SVG 1.1//EN" "http://www.w3.org/Graphics/SVG/1.1/DTD/svg11.dtd"><svg t="1566097726809" class="icon" viewBox="0 0 1024 1024" version="1.1" xmlns="http://www.w3.org/2000/svg" p-id="1242" xmlns:xlink="http://www.w3.org/1999/xlink" width="26" height="26"><defs><style type="text/css"></style></defs><path d="M849.311744 134.41536 227.216384 512l622.941184 377.583616-0.8448-755.161088M849.311744 80.308224c9.194496-0.04608 18.25792 2.285568 26.2912 6.764544 17.18784 9.551872 27.836416 27.677696 27.823104 47.34976l0.845824 755.161088c0.013312 19.658752-10.648576 37.784576-27.824128 47.34976-8.032256 4.478976-17.094656 6.816768-26.2912 6.764544-10.092544 0-19.975168-2.80064-28.563456-8.112128L198.672384 558.002176c-25.40544-15.748096-33.23392-49.106944-17.491968-74.50624 4.406272-7.107584 10.390528-13.092864 17.491968-17.491968l622.076928-377.583616c8.573952-5.311488 18.468864-8.12544 28.563456-8.118272l0 0L849.312768 80.308224zM146.778112 79.085568c-14.942208 0-27.057152 12.114944-27.057152 27.057152l0 811.713536c0 14.942208 12.114944 27.057152 27.057152 27.057152 14.942208 0 27.057152-12.114944 27.057152-27.057152l0-811.713536C173.835264 91.200512 161.72032 79.085568 146.778112 79.085568z" p-id="1243" fill="#FA3F00"></path></svg>
